<svg aria-hidden="true" style="position:absolute;width:0;height:0" xmlns="http://www.w3.org/2000/svg" overflow="hidden"><defs><symbol id="close" viewBox="0 0 32 32"><path d="M23.734 10.304L22.23 8.8l-5.963 5.962L10.305 8.8l-1.504 1.504 5.962 5.962-5.962 5.963 1.504 1.504 5.962-5.963 5.963 5.963 1.504-1.504-5.963-5.963 5.963-5.962z"/></symbol><symbol id="menu" viewBox="0 0 32 32"><path d="M6.4 11.734V9.6h19.2v2.134H6.4zm0 5.332h19.2v-2.133H6.4v2.133zm0 5.334h19.2v-2.134H6.4V22.4z"/></symbol><symbol id="check" viewBox="0 0 32 32"><path d="M4.267 0h23.467a4.267 4.267 0 014.267 4.267v23.467a4.267 4.267 0 01-4.267 4.267H4.267A4.267 4.267 0 010 27.734V4.267A4.267 4.267 0 014.267 0z"/><path stroke="var(--color2, #fff)" stroke-width=".427" d="M6.308 16.537l-.147-.14-2.205 2.088 7.767 7.41 16.318-15.567-2.19-2.089-14.128 13.465-5.416-5.167z"/></symbol><symbol id="email-black" viewBox="0 0 32 32"><path d="M26.667 5.333H5.334A2.663 2.663 0 002.681 8l-.013 16c0 1.467 1.2 2.667 2.667 2.667h21.333c1.467 0 2.667-1.2 2.667-2.667V8c0-1.467-1.2-2.667-2.667-2.667zM26.133 11l-9.427 5.893a1.346 1.346 0 01-1.413 0L5.866 11a1.132 1.132 0 111.2-1.92l8.933 5.587 8.933-5.587a1.132 1.132 0 111.2 1.92z"/></symbol><symbol id="phone-black" viewBox="0 0 32 32"><path d="M24.882 19.773l-3.268-.373a2.561 2.561 0 00-2.11.733L17.137 22.5a19.357 19.357 0 01-8.478-8.478l2.38-2.38a2.561 2.561 0 00.733-2.11l-.373-3.242a2.575 2.575 0 00-2.56-2.277H6.613c-1.454 0-2.663 1.209-2.573 2.663.682 10.987 9.469 19.761 20.443 20.443 1.454.09 2.663-1.119 2.663-2.573V22.32a2.549 2.549 0 00-2.264-2.547z"/></symbol><symbol id="close-black" viewBox="0 0 32 32"><path d="M26.667 9.081l-1.97-1.97-7.808 7.808-7.808-7.808-1.97 1.97 7.808 7.808-7.808 7.808 1.97 1.97 7.808-7.808 7.808 7.808 1.97-1.97-7.808-7.808 7.808-7.808z"/></symbol><symbol id="person-black" viewBox="0 0 32 32"><path d="M16 16c2.947 0 5.333-2.387 5.333-5.333S18.946 5.334 16 5.334c-2.947 0-5.333 2.387-5.333 5.333S13.054 16 16 16zm0 2.667c-3.56 0-10.667 1.787-10.667 5.333v1.333c0 .733.6 1.333 1.333 1.333h18.667c.733 0 1.333-.6 1.333-1.333V24c0-3.547-7.107-5.333-10.667-5.333z"/></symbol><symbol id="send" viewBox="0 0 32 32"><path d="M32 0L0 18l10.227 3.788L26 7 14.002 23.186l.01.004-.012-.004V32l5.735-6.691L27 28l5-28z"/></symbol><symbol id="antenna" viewBox="0 0 32 32"><path d="M30.773 22.098l-8.443-8.505.937-4.616c.225.09.485.144.758.146h.033a2.16 2.16 0 10-2.029-1.42l-.005-.015-4.96.606L8.973.161a.53.53 0 00-.376-.16.536.536 0 00-.373.155L6.712 1.66a.535.535 0 000 .754l.814.825C6.383 5.301 5.71 7.761 5.71 10.378c0 4.106 1.656 7.824 4.336 10.525l-.001-.001a.49.49 0 00.146.097 2.986 2.986 0 00-.052.546v6.188h-6.4a2.669 2.669 0 00-2.667 2.666v1.067c0 .295.239.534.534.534H26.14a.534.534 0 00.533-.534v-1.067a2.67 2.67 0 00-2.666-2.666h-6.4v-2.742a14.784 14.784 0 0010.166-1.502l-.077.039.818.823a.534.534 0 00.376.16.536.536 0 00.373-.155l1.512-1.504a.535.535 0 000-.754zM23.28 6.233a1.067 1.067 0 11.752 1.822h-.004a1.066 1.066 0 01-.747-1.822h-.002zm-1.256 3.504l-.598 2.946-1.175-1.183 1.774-1.763zm-.605-.902l-1.92 1.909-1.486-1.493 3.406-.416zM24.004 28.8a1.6 1.6 0 011.6 1.6v.534H2.138V30.4a1.6 1.6 0 011.6-1.6h20.267zm-7.466-2.134v1.067h-5.334v-1.067h5.334zM11.204 25.6v-4.053c0-1.294 1.196-2.346 2.667-2.346s2.667 1.053 2.667 2.346V25.6h-5.334zm6.4-1.696v-2.357c0-1.882-1.675-3.413-3.733-3.413h-.058c-1.353 0-2.54.707-3.213 1.771l-.009.016a13.817 13.817 0 01-3.812-9.55c0-2.314.567-4.496 1.569-6.414l-.036.077 18.602 18.709c-1.823.947-3.979 1.502-6.266 1.502-1.079 0-2.128-.124-3.136-.357l.093.018zm11.289-.684L7.836 2.039l.754-.752 7.935 7.98c.004 0 .006.007.01.01l13.114 13.191-.757.752z"/><path d="M13.876 20.267h-.007a1.6 1.6 0 00-.003 3.2h.007a1.6 1.6 0 00.002-3.2zm.373 1.978a.534.534 0 11-.378-.912.533.533 0 01.374.911h.005z"/></symbol><symbol id="astronaut" viewBox="0 0 32 32"><path d="M31.974 4.524a.535.535 0 00-.427-.362h-.003l-1.91-.278-.855-1.731c-.179-.365-.777-.365-.956 0l-.855 1.731-1.911.278a.534.534 0 00-.296.91l1.383 1.348-.326 1.903a.532.532 0 00.774.562l1.708-.899 1.709.899a.534.534 0 00.773-.565v.003l-.326-1.903 1.383-1.348a.532.532 0 00.133-.551l.001.004zm-2.463 1.327a.534.534 0 00-.153.472l.191 1.114-1.001-.526a.524.524 0 00-.499.001l.003-.001-1.001.526.192-1.114a.533.533 0 00-.153-.472l-.811-.789 1.119-.163a.532.532 0 00.402-.292l.5-1.013.501 1.013a.532.532 0 00.402.292l1.119.162-.809.79zm-3.377 14.671h-1.067v1.067h1.067v-1.067zm0 2.134h-1.067v1.066h1.067v-1.066zm1.066-1.067h-1.067v1.067H27.2v-1.067zM25.067 21.589H24v1.067h1.067v-1.067zm-2.667 4.8h-1.067v1.067H22.4v-1.067zm0 2.134h-1.067v1.067H22.4v-1.067zm1.066-1.067h-1.067v1.067h1.067v-1.067zm-2.132 0h-1.067v1.067h1.067v-1.067zM16 24.256h-1.067v1.067H16v-1.067zm0 2.133h-1.067v1.067H16v-1.067zm1.067-1.067H16v1.067h1.067v-1.067zm-2.134 0h-1.066v1.067h1.066v-1.067zm-9.066-19.2H4.8v1.066h1.067V6.122zm0 2.134H4.8v1.066h1.067V8.256zm1.066-1.067H5.866v1.067h1.066V7.189zm-2.133 0H3.733v1.067H4.8V7.189z"/><path d="M24.715 14.16a1.774 1.774 0 00-1.179-.703l-.009-.001a1.769 1.769 0 00-1.344.355l.004-.003-1.253.96-1.898 1.417-1.358-.541c2.421-1.086 4.113-3.508 4.113-6.32 0-3.823-3.122-6.934-6.961-6.934S7.869 5.5 7.869 9.324c0 1.386.415 2.674 1.12 3.759l-2.768-.024c-.009 0-.016.005-.023.005a.511.511 0 00-.159.033l.004-.001c-.013.005-.026.007-.038.013-.006.003-.013.003-.019.006l-3.233 1.596-.001.001-1.893.91a.429.429 0 00-.064.036l.001-.001a1.782 1.782 0 00-.594 2.306l-.005-.01c.22.424.592.742 1.043.885l.013.003a1.772 1.772 0 001.388-.133l-.009.005 1.388-.738 2.264-1.169 1.357-.008-5.442 5.415-.001.001-1.339 1.333c-.303.299-.49.714-.49 1.173v.005a1.66 1.66 0 001.666 1.663h.004a1.67 1.67 0 001.18-.485l1.314-1.309 1.741-1.3.901.897-3.102 3.088a1.645 1.645 0 00-.491 1.174v.004a1.662 1.662 0 001.666 1.664h.003a1.67 1.67 0 001.18-.485l4.488-4.472c.007-.006.016-.009.022-.016l5.166-5.658 3.471.494a.474.474 0 00.262-.032c.018-.006.033-.015.05-.023.019-.01.039-.015.058-.027l3.213-2.133c.012-.008.018-.021.029-.03.013-.01.029-.014.041-.026l1.271-1.191c.348-.326.564-.787.564-1.3 0-.4-.132-.769-.355-1.066l.003.005zM2.13 17.77a.706.706 0 01-.564.05l.005.001a.717.717 0 01-.214-1.258l.002-.001 1.314-.632.316.924.133.389-.992.527zm3.497-1.828l-1.548.8-.255-.746-.184-.537 2.027-1.001-.04 1.484zm15.1-6.62c0 .918-.219 1.785-.599 2.56l-4.181-1.899a1.865 1.865 0 00-.782-1.384l-.006-.004 1.463-4.861c2.378.756 4.105 2.974 4.105 5.588zm-11.789 0c0-3.235 2.644-5.867 5.894-5.867.253 0 .5.022.745.053l-1.432 4.753c-.019 0-.037-.006-.057-.006h-.001a1.872 1.872 0 00-1.872 1.867 1.873 1.873 0 001.872 1.867h.001c.695 0 1.295-.383 1.618-.944l3.863 1.755a5.893 5.893 0 01-4.737 2.389c-3.25 0-5.894-2.632-5.894-5.867zm5.957.8c0 .441-.362.8-.806.8h-.001a.804.804 0 01-.804-.8c0-.441.361-.8.806-.8s.806.359.806.8zM2.464 25.146a.606.606 0 01-.855.001.591.591 0 010-.844l.962-.959.852.848-.959.955zm3.214 3.734a.606.606 0 01-.855.001.591.591 0 010-.844l.963-.959.852.848-.96.955zm3.482-3.469l-.001.001-1.765 1.76-.852-.848 1.765-1.757a.527.527 0 00.09-.136c.007-.014.02-.026.026-.04.016-.041.019-.085.026-.128.003-.025.014-.048.014-.073 0-.035-.013-.07-.02-.105-.006-.032-.006-.064-.019-.096a.536.536 0 00-.092-.138c-.01-.012-.014-.027-.025-.038h-.001l-.001-.002-1.607-1.6c-.017-.017-.039-.024-.058-.038a.563.563 0 00-.084-.057l-.003-.001a.415.415 0 00-.09-.031l-.003-.001a.502.502 0 00-.101-.02h-.002l-.023-.001a.603.603 0 00-.075.005h.003c-.036.005-.069.009-.104.021a.512.512 0 00-.097.046l.002-.001c-.02.011-.042.015-.061.029l-1.773 1.324-.901-.897 2.399-2.386 4.361 4.289-.928.919zm6.819-7.017c-.015-.002-.03.004-.045.003l-.027-.001a.562.562 0 00-.092.008h.003a.484.484 0 00-.187.07l.002-.001a.492.492 0 00-.083.061c-.013.011-.028.016-.04.029l-4.698 5.146-4.328-4.256 2.833-2.818a.535.535 0 00-.378-.911h-.002l-2.219.013.028-1.607 3.104.027a6.928 6.928 0 004.978 2.101h.003c.438 0 .864-.046 1.28-.122.04.032.08.064.129.085l2.41.96.152.759.178.885-3.003-.427zm4.041.178l-.313-1.558 1.446-1.08.946 1.257-2.08 1.381zm3.754-2.831l-.838.785-.931-1.237.831-.637a.735.735 0 01.543-.143.718.718 0 01.621.71.71.71 0 01-.226.521z"/><path d="M13.602 18.544l-2.143-2.134a.53.53 0 00-.752 0l-2.143 2.134a.535.535 0 000 .756l2.143 2.134a.53.53 0 00.752 0l2.143-2.134a.532.532 0 000-.756zm-2.519 1.759l-1.387-1.381 1.386-1.381 1.387 1.381-1.387 1.381zm6.081-15.232l-.258 1.036c.071.018 1.738.452 1.738 2.149h1.067c0-2.017-1.666-2.965-2.547-3.184zm2.547 4.251h-1.067v1.066h1.067V9.322z"/></symbol><symbol id="client1" viewBox="0 0 62 32"><path d="M25.244 7.467l2.598 2.383h7.248v6.647l2.598 2.383V7.466H25.244z"/><path d="M23.111 9.749v11.088H35.2V16.43l-7.281-6.678-4.808-.003zm9.786 9.466h-7.873v-7.457h.556v6.952h7.317v.505zm-6.305 3.713l.291-.599h.243l-.424.799v.465h-.22v-.465l-.425-.799h.244l.291.599zm1.248.371h-.489l-.102.294h-.228l.477-1.264h.197l.478 1.264h-.229l-.103-.294zm-.427-.177h.366l-.183-.524-.183.524zm1.293.13c0-.058.016-.112.048-.161s.095-.107.188-.174a.773.773 0 01-.101-.154l-.002-.005a.32.32 0 01-.029-.126c0-.099.03-.177.09-.234s.141-.087.243-.087c.092 0 .167.027.226.082a.26.26 0 01.089.2v.002a.275.275 0 01-.041.145l.001-.001a.464.464 0 01-.13.131l-.002.001-.086.062.244.288a.508.508 0 00.053-.232h.183a.632.632 0 01-.11.383l.186.219h-.245l-.071-.084a.521.521 0 01-.31.102h-.014.001a.438.438 0 01-.3-.099.331.331 0 01-.112-.249v-.012.001zm.419.19a.321.321 0 00.199-.071l-.276-.326-.027.019c-.069.053-.104.113-.104.18 0 .059.019.106.057.142a.209.209 0 00.141.055h.01zm-.117-.814c0 .048.03.11.09.183l.096-.066.027-.021a.157.157 0 00.054-.118v-.005-.001a.11.11 0 00-.037-.083.13.13 0 00-.09-.036h-.01a.123.123 0 00-.093.042.154.154 0 00-.037.1v.006zm2.296.554c-.013.135-.063.24-.149.316s-.202.113-.346.113h-.01a.497.497 0 01-.259-.072l.002.001a.481.481 0 01-.176-.201l-.001-.003a.726.726 0 01-.065-.302v-.123c0-.119.021-.224.063-.315a.478.478 0 01.455-.284c.139 0 .252.038.337.114s.134.183.148.321h-.219c-.011-.091-.037-.156-.08-.196s-.105-.06-.187-.06c-.095 0-.169.035-.22.105s-.077.171-.078.306v.112c0 .137.025.241.073.313s.121.107.215.107c.086 0 .151-.019.195-.058s.071-.103.082-.194h.219zm1.206-.188c0 .124-.021.233-.064.326s-.105.165-.184.215a.503.503 0 01-.274.075.508.508 0 01-.274-.075.503.503 0 01-.185-.211l-.001-.003a.739.739 0 01-.066-.308v-.012.001-.071c0-.124.021-.233.065-.327s.106-.166.185-.216c.08-.05.171-.075.274-.075s.194.025.273.075c.08.049.141.12.185.213s.065.201.066.324v.07zm-.22-.066a.553.553 0 00-.08-.322.258.258 0 00-.213-.112h-.012.001-.01a.26.26 0 00-.213.111l-.001.001a.55.55 0 00-.082.315v.073c0 .139.027.246.081.322s.129.114.225.114c.097 0 .172-.037.224-.111s.079-.182.079-.325v-.066z"/></symbol><symbol id="client2" viewBox="0 0 62 32"><path d="M30.214 7.799h.048c.09 0 .187.009.283.017.466.034.897.101 1.314.201l-.055-.011V6.988a7.522 7.522 0 00-1.3-.207 8.91 8.91 0 00-.513-.025h-.164c-.88.004-1.756.116-2.609.336-.971.242-1.902.621-2.768 1.126v10.097a10.96 10.96 0 012.56-1.011l.078-.017a11.144 11.144 0 012.184-.339l.03-.001h.03c.125-.006.25-.01.379-.011v-1.035a12.208 12.208 0 00-2.963.402l.085-.019c-.348.091-.684.188-1 .297l-.36.122V8.83l.154-.074a9.86 9.86 0 013.712-.953l.027-.001.016-.001.017.001h-.001c.143-.007.287-.011.428-.011h.162c.075.002.149.004.224.008z"/><path d="M32.75 8.865h-.009a9.214 9.214 0 01-1.551-.13l.054.008a7.51 7.51 0 01-.47-.095v9.981c.647.16 1.312.238 1.979.233a10.672 10.672 0 002.683-.352l-.074.017a10.547 10.547 0 002.818-1.153l-.049.027V7.485c-.758.421-1.635.773-2.559 1.011l-.078.017c-.896.23-1.817.348-2.742.352zm3.991.172l.36-.121v7.875l-.154.074a9.429 9.429 0 01-1.771.646l-.068.015a9.59 9.59 0 01-2.354.305 8.1 8.1 0 01-.702-.03l-.246-.022V9.68l.287.019c.19.013.411.02.634.02h.026-.001a12.206 12.206 0 002.989-.383c.336-.089.669-.188 1-.299zm-11.59 12.727a.53.53 0 00-.382-.162h-.019.001-.008a.593.593 0 00-.227.045l.004-.001a.524.524 0 00-.295.296l-.001.004a.589.589 0 00-.042.223v1.349a.63.63 0 00.053.277.482.482 0 00.32.277.77.77 0 00.202.028.568.568 0 00.559-.568v-.151h-.353v.128a.314.314 0 01-.022.115l.001-.002a.212.212 0 01-.051.076.25.25 0 01-.147.052l-.021.001a.178.178 0 01-.144-.073.313.313 0 01-.047-.167v-.015.001-1.258a.44.44 0 01.043-.202.181.181 0 01.174-.082h-.001.007c.062 0 .116.03.15.076a.283.283 0 01.059.174V22.329h.349v-.137-.006a.625.625 0 00-.045-.234l.002.004a.565.565 0 00-.118-.19zm2.095-.015a.628.628 0 00-.401-.149.6.6 0 00-.21.038.558.558 0 00-.321.296l-.001.003a.63.63 0 00-.052.261v1.294a.621.621 0 00.052.265.527.527 0 00.137.181.55.55 0 00.186.114.609.609 0 00.612-.114l-.001.001a.555.555 0 00.184-.446v-1.294-.012a.626.626 0 00-.053-.253l.002.004a.586.586 0 00-.133-.189zm-.165 1.744l.001.02a.23.23 0 01-.071.167.256.256 0 01-.332-.001.23.23 0 01-.071-.167l.001-.021v.001-1.294l-.001-.02a.23.23 0 01.071-.167.257.257 0 01.332 0 .23.23 0 01.071.167l-.001.021v-.001 1.294zm2.916.578v-2.45h-.339l-.445 1.297h-.006l-.449-1.296h-.335v2.449h.35v-1.49h.006l.343 1.053h.175l.345-1.053h.006v1.49h.35zm1.988-2.278a.488.488 0 00-.198-.134.763.763 0 00-.239-.038h-.534v2.449h.349v-.956h.18a.638.638 0 00.315-.067.511.511 0 00.19-.185l.001-.002a.568.568 0 00.08-.213c.014-.092.02-.185.019-.278a1.377 1.377 0 00-.034-.35.52.52 0 00-.129-.225zm-.18.747a.308.308 0 01-.033.129l.001-.002a.193.193 0 01-.089.085h-.001a.348.348 0 01-.147.031h-.019.001-.159v-.833h.197a.33.33 0 01.143.032l-.002-.001a.2.2 0 01.081.089v.001a.375.375 0 01.031.137v.163c0 .057.004.116 0 .168h-.004zm1.833-.919h-.286l-.54 2.45h.349l.102-.526h.476l.103.526h.349l-.553-2.45zm-.322 1.59l.172-.888h.006l.171.888h-.349zm2.577-.114h-.006l-.527-1.476h-.335v2.45h.349v-1.473h.007l.534 1.473h.328v-2.449h-.349v1.476zm2.133-1.476l-.281.974h-.007l-.281-.974h-.37l.479 1.414v1.035h.349v-1.035l.479-1.414h-.369zm-13.848 3.142h.168v.472h.114v-.472h.167v-.097h-.449v.097zm1.414-.097l-.22.569h.121l.047-.129h.227l.048.129h.124l-.226-.569h-.121zm-.018.343l.077-.211.077.211h-.155zm1.415.016h.132v.073a.214.214 0 01-.135.048h-.008a.145.145 0 01-.113-.054.24.24 0 01-.042-.136v-.013.001c0-.127.055-.19.164-.19l.012-.001a.12.12 0 01.116.09v.001l.112-.022c-.024-.111-.104-.167-.241-.167h-.008a.289.289 0 00-.191.073.276.276 0 00-.082.219v-.001.013c0 .076.028.146.074.201.05.052.12.084.198.084l.019-.001h-.001.01a.339.339 0 00.232-.091v-.224h-.246v.096zm1.428-.359h-.115v.569h.398v-.097h-.283v-.472zm1.207 0h-.115v.569h.115v-.569zm1.18.379l-.233-.379h-.111v.569h.107v-.372l.229.372h.114v-.569h-.105v.38zm1.067-.061h.283v-.097h-.283v-.125h.305v-.097h-.42v.569h.432v-.097h-.316v-.154zm2.587-.094h-.224v-.224h-.114v.569h.114v-.249h.224v.249h.114v-.569h-.114v.224zm1.073.094h.284v-.097h-.284v-.125h.306v-.097h-.42v.569h.431v-.097h-.316v-.154zm1.455 0c.099-.016.149-.068.149-.158l.001-.016a.136.136 0 00-.056-.11.312.312 0 00-.144-.034l-.023.001h.001-.241v.569h.114v-.238h.031c.022 0 .044.005.063.013h-.001c.017.01.031.025.041.042l.124.181h.137l-.069-.111a.406.406 0 00-.124-.136l-.001-.001zm-.115-.079h-.084v-.143h.09l.024-.001c.033 0 .064.005.094.015l-.002-.001a.077.077 0 01.025.056.075.075 0 01-.031.06.316.316 0 01-.095.014l-.022-.001h.001zm1.212.079h.283v-.097h-.283v-.125h.306v-.097h-.421v.569h.432v-.097h-.317v-.154z"/></symbol><symbol id="client3" viewBox="0 0 62 32"><path d="M24.656 22.931a.04.04 0 01.028.012l.073.074a.605.605 0 01-.206.141.762.762 0 01-.292.051h-.015a.73.73 0 01-.265-.049l.005.002a.594.594 0 01-.339-.335l-.001-.004a.703.703 0 01-.047-.256v-.009-.009c0-.092.018-.18.052-.26l-.002.004a.604.604 0 01.357-.339l.005-.001a.795.795 0 01.274-.047h.009a.712.712 0 01.263.043c.072.029.139.07.196.119l-.061.079c-.004.006-.01.01-.015.014a.037.037 0 01-.021.006h-.003a.062.062 0 01-.027-.009l-.033-.021-.046-.027a.488.488 0 00-.141-.047h-.003a.622.622 0 00-.101-.009h-.015a.551.551 0 00-.2.037l.004-.001a.445.445 0 00-.262.259.552.552 0 00-.038.203v.008a.572.572 0 00.038.212.474.474 0 00.101.158.42.42 0 00.152.098c.06.023.124.035.188.034a.842.842 0 00.112-.007.417.417 0 00.169-.056.64.64 0 00.073-.052.058.058 0 01.034-.014zm2.113-.373a.692.692 0 01-.049.262.57.57 0 01-.137.203.63.63 0 01-.212.133l-.004.001a.835.835 0 01-.562-.002l.006.002a.599.599 0 01-.352-.336l-.001-.004a.716.716 0 01.002-.531l-.002.005a.605.605 0 01.139-.206.639.639 0 01.211-.128l.004-.001a.829.829 0 01.556 0 .585.585 0 01.354.338.684.684 0 01.05.264zm-.192 0v-.011a.6.6 0 00-.036-.204l.001.004a.43.43 0 00-.25-.257l-.003-.001a.609.609 0 00-.404 0 .43.43 0 00-.252.254l-.001.003a.662.662 0 000 .422.43.43 0 00.253.257.621.621 0 00.404 0 .42.42 0 00.253-.257.585.585 0 00.035-.211zm1.633.221l.02.047.021-.047a.506.506 0 01.024-.046l.467-.784c.009-.014.017-.022.027-.025s.021-.004.032-.004H28.946v1.276h-.164v-.978l-.001-.022.001-.023v.001l-.47.795a.075.075 0 01-.067.04h-.027a.078.078 0 01-.068-.04l-.484-.8v1.024h-.158V21.92H27.652c.011 0 .022.002.033.005h-.001c.011.005.02.014.025.024l.477.785a.204.204 0 01.023.044l.001.002zm1.759-.064v.478h-.183v-1.274h.408a.833.833 0 01.228.028.449.449 0 01.161.079c.039.033.07.075.091.123l.001.002a.398.398 0 01.031.163v.005a.394.394 0 01-.035.161l.001-.002a.353.353 0 01-.098.127h-.001a.456.456 0 01-.159.083l-.003.001a.744.744 0 01-.22.03l-.221-.004zm0-.137h.221a.486.486 0 00.142-.019.31.31 0 00.103-.055h-.001a.23.23 0 00.062-.083l.001-.001a.251.251 0 00.022-.104v-.003-.013a.233.233 0 00-.019-.092l.001.001a.243.243 0 00-.064-.087.375.375 0 00-.218-.069l-.029.001h.001-.221v.525zm2.458.617h-.146a.069.069 0 01-.038-.012.08.08 0 01-.023-.029l-.124-.308h-.625l-.129.308a.063.063 0 01-.023.028.068.068 0 01-.04.013h-.146l.549-1.276h.19l.556 1.275zm-.905-.474h.516l-.218-.519a.758.758 0 01-.04-.114l-.001-.006-.021.067c-.006.02-.014.039-.02.054l-.216.518zm1.695-.796a.07.07 0 01.028.023l.8.961v-.99h.164v1.275h-.094a.104.104 0 01-.035-.007h.001a.096.096 0 01-.029-.024l-.799-.961a.323.323 0 010 .044v.948h-.164v-1.275h.097c.011 0 .022.002.033.006zm2.34.763v.506h-.183v-.507l-.506-.768h.168a.06.06 0 01.035.011c.01.009.019.018.025.029l.316.496c.022.033.04.07.055.109l.001.004.024-.055a.476.476 0 01.032-.06l-.001.002.312-.499a.155.155 0 01.024-.027.06.06 0 01.037-.013h.169l-.507.772zm-7.438-2.909c.08.009.16.017.242.024 1.234-.509 2.278-1.344 3.001-2.398s1.094-2.282 1.066-3.529l-1.36-1.255c.09.414.142.889.142 1.377a6.73 6.73 0 01-.532 2.633l.017-.044a7.374 7.374 0 01-2.575 3.193z"/><path d="M27.634 19.72l.037.007c1.243-.821 2.19-1.966 2.719-3.289a6.431 6.431 0 00.473-2.441c0-.6-.081-1.182-.233-1.734l.011.046-1.937-1.788c.783 1.47 1.099 3.115.91 4.743s-.876 3.174-1.979 4.457zm6.569-4.371c-.329 1.371-1.128 2.607-2.279 3.525a7.151 7.151 0 01-1.045.699l-.037.019c.937-.254 1.798-.703 2.517-1.313s1.276-1.364 1.63-2.205l-.786-.724z"/><path d="M33.895 15.147l-1.119-1.032c-.021 1.177-.384 2.327-1.05 3.331s-1.611 1.825-2.737 2.378h.006c.251 0 .501-.014.751-.041 1.052-.396 1.982-1.028 2.706-1.836s1.22-1.771 1.444-2.799zm-6.099-5.38l-1.334-1.233c-1.193.426-2.219 1.173-2.943 2.146s-1.115 2.124-1.118 3.305c.005 1.305.48 2.57 1.351 3.597s2.089 1.756 3.46 2.072c1.224-1.376 1.94-3.077 2.046-4.855s-.407-3.54-1.461-5.031zm9.182 5.19c-.005-1.548-.673-3.03-1.858-4.124s-2.792-1.711-4.468-1.716a6.712 6.712 0 00-2.265.389l8.17 7.541a5.298 5.298 0 00.422-2.091z"/></symbol><symbol id="client4" viewBox="0 0 62 32"><path d="M32.316 12.869c-.002-1.055-.46-2.066-1.273-2.812s-1.915-1.166-3.066-1.168c-1.15.002-2.253.422-3.067 1.168s-1.271 1.757-1.274 2.812v5.817s8.678-.887 8.679-5.816v-.001zm-15.605 7.726c.002.734.321 1.437.886 1.956s1.333.812 2.133.814c.8-.003 1.567-.295 2.132-.814s.885-1.222.887-1.956v-4.048s-6.039.618-6.039 4.047zm3.019.726a.849.849 0 01-.439-.122.752.752 0 01-.289-.321L19 20.873a.658.658 0 01-.044-.424l-.001.004c.031-.141.106-.27.216-.371a.81.81 0 01.559-.212c.109 0 .213.02.309.057l-.006-.002c.144.055.268.148.355.267a.683.683 0 01-.097.917h-.001a.843.843 0 01-.56.213v-.003zm6.133-.404h-.6v.62h-.313V20.02h.987v.253h-.675v.392h.6v.252zm1.502-.103c0 .149-.026.28-.079.393s-.128.199-.227.26a.615.615 0 01-.326.092h-.013.001a.598.598 0 01-.563-.345l-.002-.004a.882.882 0 01-.083-.375v-.013.001-.075c0-.149.027-.281.08-.394a.603.603 0 01.566-.354.62.62 0 01.336.092c.099.06.175.148.228.262a.902.902 0 01.081.393v.068zm-.316-.069c0-.159-.028-.28-.085-.363a.28.28 0 00-.232-.124h-.013.001-.012a.279.279 0 00-.23.122l-.001.001c-.057.081-.086.201-.086.358v.074c0 .155.028.275.085.36s.139.128.246.128h.012a.276.276 0 00.229-.122l.001-.001c.056-.083.085-.203.085-.361v-.074zm1.33.394v-.009a.158.158 0 00-.062-.126.815.815 0 00-.225-.1 1.586 1.586 0 01-.266-.108l.009.004c-.172-.093-.258-.218-.258-.376 0-.082.023-.155.069-.219.047-.065.113-.115.199-.151s.184-.054.292-.054c.108 0 .205.02.29.059s.15.094.197.166a.436.436 0 01.071.244h-.313c0-.069-.021-.123-.065-.161a.268.268 0 00-.185-.058.285.285 0 00-.178.049.152.152 0 00-.064.124v.004c0 .049.025.091.074.124s.123.064.22.093c.178.053.307.12.389.199s.122.178.122.296c0 .131-.05.234-.149.309s-.233.111-.401.111a.786.786 0 01-.319-.063.523.523 0 01-.219-.174l-.001-.002a.448.448 0 01-.075-.249v-.01h.314c0 .167.1.251.3.251a.295.295 0 00.174-.045.148.148 0 00.063-.121v-.006zm1.668-.865h-.464v1.264h-.313v-1.264h-.458v-.253h1.235v.253zm1.091.606h-.599v.406h.704v.251h-1.017V20.02h1.014v.253h-.701v.362h.6v.245zm.849.102h-.249v.555h-.313V20.02h.564c.179 0 .317.04.415.12s.146.193.146.338c0 .103-.022.19-.068.26a.448.448 0 01-.2.163l-.003.001.328.62v.014h-.335l-.284-.555zm-.249-.253h.252c.078 0 .139-.02.182-.059a.215.215 0 00.065-.154v-.012.001a.226.226 0 00-.062-.169c-.04-.041-.102-.061-.186-.061h-.251v.455zm1.894.274v.535h-.313v-1.517h.592c.114 0 .214.021.3.063a.463.463 0 01.27.44c0 .149-.051.266-.153.352s-.242.128-.422.128h-.274zm0-.253h.279c.083 0 .146-.02.188-.058.044-.039.066-.095.066-.167v-.011a.248.248 0 00-.066-.169.249.249 0 00-.181-.071h-.287v.476zm1.977.13h-.6v.406h.704v.251h-1.017V20.02h1.015v.253h-.702v.362h.6v.245zm1.45-.606h-.465v1.264h-.313v-1.264h-.458v-.253h1.236v.253zm1.092.606h-.6v.406h.704v.251h-1.017V20.02h1.014v.253h-.702v.362h.6v.245zm.849.102h-.249v.555h-.313V20.02h.564c.179 0 .317.04.415.12s.146.193.146.338c0 .103-.023.19-.068.26a.448.448 0 01-.2.163l-.003.001.328.62v.014h-.335l-.284-.555zm-.249-.253h.252c.078 0 .139-.02.182-.059a.215.215 0 00.065-.154v-.012.001c0-.071-.021-.128-.062-.169s-.102-.061-.186-.061h-.251v.455zm1.836.411v-.009a.157.157 0 00-.062-.126.815.815 0 00-.225-.1 1.633 1.633 0 01-.267-.108l.009.004c-.172-.093-.258-.218-.258-.376 0-.082.023-.155.069-.219a.46.46 0 01.196-.15l.003-.001c.087-.036.184-.054.292-.054s.205.02.29.059a.436.436 0 01.268.41h-.312a.202.202 0 00-.066-.161.268.268 0 00-.185-.058.285.285 0 00-.178.049.15.15 0 00-.063.123v.005c0 .049.025.091.074.124s.123.064.22.093c.178.053.307.12.389.199s.122.178.122.296c0 .131-.049.234-.149.309s-.233.111-.401.111a.786.786 0 01-.319-.063.523.523 0 01-.219-.174l-.001-.002a.446.446 0 01-.075-.249v-.01h.314c0 .167.1.251.3.251a.295.295 0 00.174-.045.15.15 0 00.063-.121v-.006z"/></symbol><symbol id="client5" viewBox="0 0 62 32"><path d="M22.218 21.788a.557.557 0 01.123.359l.001.027a.57.57 0 01-.191.426h-.001a.825.825 0 01-.554.166h-.974v-2.277h.954a.805.805 0 01.531.153l-.002-.002a.52.52 0 01.186.398l-.001.029v-.001a.528.528 0 01-.111.348.52.52 0 01-.291.178.55.55 0 01.329.195zm-1.142-.344h.408a.383.383 0 00.259-.076.272.272 0 00.088-.2l-.001-.024v.001l.001-.02a.278.278 0 00-.087-.203.388.388 0 00-.235-.078l-.034.001h.001-.401v.597zm.706.873a.28.28 0 00.097-.213l-.001-.019v-.016a.285.285 0 00-.099-.217.415.415 0 00-.251-.083l-.028.001h.001-.427v.626h.433a.428.428 0 00.274-.079zm2.386.45l-.53-.89h-.199v.89h-.457V20.49h.864l.059-.002c.207 0 .397.074.544.197l-.001-.001a.727.727 0 01.062.944l.001-.002a.699.699 0 01-.412.231l.565.91h-.497zm-.73-1.201h.373c.26 0 .389-.115.389-.345l.001-.02a.343.343 0 00-.096-.237.405.405 0 00-.259-.094l-.037.002h.002-.378l.005.693zm3.225.742h-.91l-.161.459h-.479l.836-2.252h.517l.832 2.252h-.479l-.157-.458zm-.122-.345l-.332-.961-.332.961h.665zm3.246.804h-.454l-1.016-1.548v1.548h-.452V20.49h.452l1.016 1.557V20.49h.453v2.277zm2.586-.546a.985.985 0 01-.405.399l-.005.003c-.197.1-.416.149-.637.143h-.807v-2.277H31.361c.219 0 .427.052.61.144l-.008-.004a.963.963 0 01.41.397 1.327 1.327 0 01-.003 1.202l.004-.008zm-.518-.054a.834.834 0 00-.001-1.088l.001.001a.783.783 0 00-.569-.193h.002-.315v1.474h.315a.781.781 0 00.568-.194l-.001.001zM26.947 7.822s5.849 2.217 5.725 5.426v5.427s-5.845-2.219-5.723-5.427l-.002-5.426zm10.937 9.582a7.908 7.908 0 013.681-1.372l.035-.003V14.33a7.684 7.684 0 00-3.698 3.043l-.019.031z"/><path d="M37.22 17.916a8.009 8.009 0 014.325-3.924l.055-.018V9.079s-8.331 3.158-8.154 7.727v7.727s.371-.141.955-.406c0-.247 0-.496.027-.747a8.04 8.04 0 012.781-5.456l.011-.009z"/><path d="M36.428 20.787a8.016 8.016 0 01.291-1.582 7.446 7.446 0 00-1.764 4.659v.008a23.09 23.09 0 001.716-.909l-.114.062a7.775 7.775 0 01-.157-1.577c0-.232.01-.462.029-.69l-.002.03zm.331.027a7.76 7.76 0 00.11 2.074l-.008-.048c2.276-1.367 4.833-3.48 4.735-6.033v-.222a7.452 7.452 0 00-4.333 2.034l.002-.002a7.448 7.448 0 00-.506 2.171l-.002.027z"/></symbol><symbol id="client6" viewBox="0 0 62 32"><path d="M31.196 15.534a1.089 1.089 0 01-.205-.638l.002-.074v.003-1.028c0-.315.067-.554.202-.718s.366-.245.693-.245c.308 0 .526.07.655.209a.883.883 0 01.193.615v.241h-.55v-.245c.002-.08-.004-.16-.016-.239a.234.234 0 00-.078-.142.302.302 0 00-.176-.056l-.024.001h.001l-.023-.001a.321.321 0 00-.188.06l.001-.001a.283.283 0 00-.091.155v.002c-.014.07-.022.151-.022.234v.021-.001 1.247a.666.666 0 00.07.35.262.262 0 00.108.084l.002.001c.032.014.07.021.109.021l.035-.002h-.001a.288.288 0 00.196-.057l-.001.001a.26.26 0 00.082-.15v-.001c.013-.083.019-.166.017-.25v-.253h.55v.231l.002.062c0 .22-.072.422-.194.586l.002-.003c-.126.153-.342.229-.659.229s-.556-.082-.692-.251zm2.292.01c-.139-.16-.209-.393-.209-.701v-1.081c0-.305.07-.536.209-.693s.371-.235.697-.234c.324 0 .555.078.694.234s.21.388.21.693v1.081c0 .305-.071.539-.212.7s-.371.241-.692.241c-.32 0-.557-.082-.697-.24zm.954-.259c.05-.1.073-.21.066-.32v-1.323l.001-.036a.612.612 0 00-.068-.282l.002.003a.268.268 0 00-.111-.086l-.002-.001a.283.283 0 00-.147-.018h.002c-.011-.002-.024-.002-.037-.002a.288.288 0 00-.11.022l.002-.001a.266.266 0 00-.112.085v.001a.6.6 0 00-.066.315v-.002 1.329c-.007.11.016.22.066.32.032.033.071.06.114.078l.002.001c.042.018.09.028.142.028s.1-.01.144-.029l-.002.001a.351.351 0 00.116-.079v-.006zm1.309-2.418h.592l.446 1.994.456-1.994h.577l.058 2.878h-.426l-.045-2-.44 2h-.342l-.456-2.008-.042 2.008h-.431l.054-2.878zm2.793 0h.923c.532 0 .797.272.797.817 0 .522-.28.782-.84.782h-.314v1.279h-.57l.004-2.878zm.789 1.23a.428.428 0 00.313-.091l-.001.001a.491.491 0 00.082-.325l.001-.032c0-.081-.01-.16-.029-.236l.001.007a.23.23 0 00-.113-.136l-.001-.001a.545.545 0 00-.225-.047l-.031.001h.001-.221v.86h.221zm1.754-1.23h.612l.628 2.878h-.531l-.124-.664h-.546l-.128.664h-.539l.628-2.878zm.523 1.88l-.213-1.208-.213 1.208h.426zm1.223-1.88h.399l.763 1.642v-1.642h.473v2.878h-.379l-.768-1.714v1.714h-.489l.001-2.878zm2.744 1.78l-.635-1.776h.535l.387 1.141.364-1.141h.523l-.627 1.776v1.098h-.547v-1.098zm-13.501 2.356v.151h-.465v1.169h-.195v-1.17h-.467v-.15h1.127zm1.458 1.32h-.154a.062.062 0 01-.038-.013.067.067 0 01-.025-.03l-.134-.314h-.645l-.134.314a.082.082 0 01-.021.036.065.065 0 01-.039.013h-.154l.57-1.32h.198l.577 1.315zm-.944-.49h.538l-.228-.537a.935.935 0 01-.041-.117l-.002-.007-.021.07-.021.055-.226.536zm1.926.361h.107a.54.54 0 00.091-.016.591.591 0 00.082-.024l.076-.032v-.297h-.231a.042.042 0 01-.036-.021.028.028 0 01-.003-.013v-.101h.442v.506a.842.842 0 01-.379.135h-.004a1.632 1.632 0 01-.163.008h-.011a.824.824 0 01-.286-.051l.006.002a.706.706 0 01-.228-.138h.001a.65.65 0 01-.146-.205l-.002-.004a.684.684 0 01-.052-.265v-.01-.009c0-.096.019-.188.053-.272l-.002.005a.616.616 0 01.37-.344l.005-.002a.902.902 0 01.305-.049c.053 0 .106.004.159.012a.76.76 0 01.249.085.885.885 0 01.1.069l-.055.082a.062.062 0 01-.018.018.053.053 0 01-.026.007.06.06 0 01-.035-.011.623.623 0 01-.059-.033l.003.002a.408.408 0 00-.073-.034l-.003-.001a.626.626 0 00-.1-.028l-.004-.001a.827.827 0 00-.137-.011h-.016a.627.627 0 00-.217.038l.004-.001a.458.458 0 00-.274.269.642.642 0 00.002.444l-.001-.005a.494.494 0 00.28.271.595.595 0 00.226.026zm1.816-.022h.622v.151h-.812v-1.321h.195l-.005 1.17zm1.27.151h-.195v-1.321h.195v1.32zm.725-1.314a.085.085 0 01.029.024l.833.995-.001-.023.001-.025v.001-.984h.17v1.326H39.254a.086.086 0 01-.036-.008h.001a.105.105 0 01-.03-.025l-.832-.994v1.026h-.163v-1.32h.101c.012 0 .023.002.033.007h-.001zm2.467-.006v.145h-.691v.436h.56v.14h-.56v.451h.691v.145h-.891v-1.317h.891zm-20.42-8.152l8.652 2.253V19l-8.652-2.252V8.851zm-.554-.673v8.954l9.761 2.543v-8.953L19.82 8.178z"/><path d="M25.051 23.831l-9.762-2.545v-8.953l9.762 2.544v8.954z"/><path d="M19.982 8.749l8.54 2.225-3.632 3.332-8.54-2.226 3.633-3.332zm-.162-.571l-4.531 4.156 9.762 2.544 4.529-4.155-9.761-2.544zm5.78 15.149l3.98-3.652-3.98-1.038v4.69z"/></symbol><symbol id="clock" viewBox="0 0 32 32"><path d="M31.296 15.301C31.295 6.849 24.441-.002 15.988 0S.685 6.855.687 15.308c.002 6.788 4.422 12.543 10.541 14.545l.108.031a.667.667 0 00.529-.065.636.636 0 00.283-.357l3.865-12.25a1.913 1.913 0 10-.852-3.63l.011-.005-5.106-5.107a.638.638 0 00-.902.902l5.103 5.109a1.847 1.847 0 00-.191.826c0 .602.283 1.137.723 1.48l.004.003-3.682 11.673C3.843 25.782.117 17.709 2.797 10.431S13.551-.573 20.829 2.108c7.278 2.681 11.004 10.754 8.323 18.032-1.345 3.581-4.003 6.406-7.374 7.938l-.088.036-.398-1.874a.639.639 0 00-1.05-.343l.001-.001-3.837 3.426a.637.637 0 00.227 1.083l.005.001 4.899 1.563a.637.637 0 00.818-.744l.001.004-.391-1.839c5.528-2.374 9.329-7.772 9.329-14.057v-.034.002zm-15.304-.637a.638.638 0 010 1.276.638.638 0 010-1.276zm2.1 14.864l2.184-1.948.603 2.84-2.787-.892z"/><path d="M15.354 3.185V4.46a.638.638 0 001.276 0V3.185a.638.638 0 10-1.276 0zM3.876 14.664a.638.638 0 000 1.276h1.275a.638.638 0 000-1.276H3.876zm24.232 1.275a.638.638 0 000-1.276h-1.275a.638.638 0 000 1.276h1.275z"/></symbol><symbol id="diagram" viewBox="0 0 32 32"><path d="M14.926 14.965h1.066v4.798h-1.066v-4.798zm4.264 2.132h1.066v2.665H19.19v-2.665zm-8.529 1.599h1.066v1.066h-1.066v-1.066zm-3.198-.533h1.066v1.599H7.463v-1.599z"/><path d="M1.599 28.291h25.586a1.6 1.6 0 001.599-1.599V24.56a1.6 1.6 0 00-1.599-1.599h-.533V9.667l3.028-2.868a1.608 1.608 0 10-.742-.752l-.004-.01-2.281 2.162v-1.23a1.6 1.6 0 00-1.599-1.599H3.731a1.6 1.6 0 00-1.599 1.599v15.992h-.533A1.6 1.6 0 000 24.56v2.132a1.6 1.6 0 001.599 1.599zM30.384 4.837a.533.533 0 010 1.066.533.533 0 010-1.066zM3.198 6.969c0-.294.239-.533.533-.533h21.323c.294 0 .533.239.533.533v2.239l-1.066 1.013V8.036a.534.534 0 00-.534-.534H4.798a.534.534 0 00-.534.533v13.327c0 .294.239.533.534.533h19.189a.534.534 0 00.534-.533v-9.675l1.066-1.01V22.96H3.198V6.969zm4.798 6.93h-.005a1.6 1.6 0 101.112 2.748l1.853.93a.535.535 0 00.636-.122l3.939-4.432 3.872 2.902a.534.534 0 00.686-.039l3.365-3.188v8.131H5.331V8.568h18.123v2.661l-3.771 3.572-3.904-2.927a.534.534 0 00-.718.071v.001l-3.993 4.493-1.493-.746c.011-.064.017-.128.02-.193a1.6 1.6 0 00-1.599-1.599zm.533 1.599a.533.533 0 01-1.066 0 .533.533 0 011.066 0zm3.198 8.528h5.33v.533a.533.533 0 01-.533.533h-4.265a.533.533 0 01-.533-.533v-.533zm-10.66.534c0-.294.238-.533.533-.533h9.062v.533a1.6 1.6 0 001.599 1.599h4.265a1.6 1.6 0 001.599-1.599v-.533h9.062c.294 0 .533.239.533.533v2.132a.533.533 0 01-.533.533H1.601a.533.533 0 01-.533-.533V24.56z"/></symbol><symbol id="envelope" viewBox="0 0 47 32"><path d="M42.182 0H4.364C1.958 0 0 1.772 0 3.948v23.68c0 2.176 1.958 3.945 4.364 3.945h37.818c2.406 0 4.364-1.769 4.364-3.948V3.945c0-2.17-1.958-3.945-4.364-3.945zm0 2.63c.198 0 .387.038.559.102L23.273 17.993 3.805 2.732c.166-.064.358-.102.558-.102h37.818zm0 26.313H4.364c-.803 0-1.455-.591-1.455-1.318V5.513l19.409 15.215c.276.215.614.32.954.32h.013c.356 0 .684-.12.945-.323l-.004.003L43.635 5.513v22.112c0 .727-.652 1.318-1.455 1.318z"/></symbol><symbol id="facebook" viewBox="0 0 32 32"><path d="M18.422 11.142h1.329V8.829c-.56-.065-1.21-.102-1.867-.102h-.071.004c-1.915 0-3.226 1.204-3.226 3.418v2.036h-2.113v2.585h2.113v6.505h2.59v-6.505h2.028l.321-2.585h-2.349v-1.782c0-.747.201-1.258 1.243-1.258z"/></symbol><symbol id="instagram" viewBox="0 0 32 32"><path d="M23.258 13.004c-.033-.773-.159-1.304-.337-1.764a3.57 3.57 0 00-.841-1.29l-.001-.001a3.583 3.583 0 00-1.263-.83l-.024-.008c-.463-.179-.991-.304-1.764-.337-.778-.037-1.025-.046-3.001-.046s-2.222.009-2.998.043c-.773.033-1.304.159-1.764.338a3.58 3.58 0 00-1.29.84l-.001.001c-.36.354-.645.784-.83 1.263l-.008.024c-.18.463-.304.991-.338 1.764-.037.778-.046 1.025-.046 3.001s.009 2.222.043 2.998c.034.773.159 1.304.338 1.764.194.505.48.935.84 1.29h.001c.364.369.804.656 1.287.838.463.18.992.305 1.764.338.776.034 1.023.043 2.998.043s2.222-.009 2.998-.043c.773-.033 1.304-.159 1.764-.337a3.741 3.741 0 002.12-2.104l.009-.025c.179-.463.304-.992.338-1.764.034-.776.042-1.023.042-2.998s-.003-2.222-.036-2.998zm-1.309 5.939c-.032.711-.151 1.094-.25 1.349a2.428 2.428 0 01-1.365 1.376l-.016.006c-.255.099-.641.218-1.349.249-.767.034-.997.043-2.938.043s-2.174-.009-2.938-.043c-.711-.031-1.094-.151-1.35-.25a2.237 2.237 0 01-.834-.542l-.001-.001a2.268 2.268 0 01-.538-.819l-.005-.016c-.099-.256-.218-.642-.249-1.35-.034-.767-.043-.998-.043-2.938s.009-2.175.043-2.938c.031-.711.151-1.094.249-1.35.122-.328.308-.608.545-.835l.001-.001c.229-.235.509-.42.821-.537l.016-.005c.255-.099.641-.218 1.349-.25.767-.033.998-.042 2.938-.042 1.943 0 2.174.008 2.938.042.711.031 1.094.151 1.35.25.315.116.602.301.835.543.241.236.426.52.543.836.099.255.218.641.249 1.349.034.767.043.997.043 2.938s-.009 2.167-.043 2.935z"/><path d="M16.027 12.265a3.737 3.737 0 00-3.737 3.737v.001a3.737 3.737 0 103.737-3.737h-.001zm0 6.16a2.424 2.424 0 110-4.848 2.424 2.424 0 110 4.848zm4.757-6.308a.873.873 0 01-1.746 0 .873.873 0 011.746 0z"/></symbol><symbol id="linkedin" viewBox="0 0 32 32"><path d="M23.269 23.273h.004v-5.335c0-2.609-.561-4.62-3.612-4.62-1.467 0-2.451.804-2.853 1.568h-.042v-1.324h-2.893v9.711h3.012v-4.808c0-1.266.24-2.491 1.808-2.491 1.545 0 1.568 1.445 1.568 2.572v4.728h3.009zM8.967 13.562h3.016v9.711H8.967v-9.711zm1.507-4.835c-.965 0-1.747.782-1.747 1.747 0 .964.783 1.763 1.747 1.763s1.746-.799 1.746-1.763c0-.964-.782-1.746-1.746-1.747z"/></symbol><symbol id="smartphone" viewBox="0 0 21 32"><path d="M18.133 0H3.2C1.436 0 0 1.299 0 2.895v25.082c0 1.596 1.436 2.895 3.2 2.895h14.933c1.764 0 3.2-1.299 3.2-2.895V2.895c0-1.596-1.436-2.895-3.2-2.895zM3.2 1.929h14.933c.589 0 1.067.433 1.067.966v20.258H2.133V2.895c0-.533.478-.966 1.067-.966zm14.933 27.012H3.2c-.589 0-1.067-.431-1.067-.964v-2.895H19.2v2.895c0 .533-.478.964-1.067.964z"/><path d="M5.022 26.33a.9.9 0 01.001 1.365l-.001.001c-.201.176-.465.283-.755.283s-.554-.107-.756-.285l.001.001a.9.9 0 01-.001-1.365l.001-.001c.201-.176.465-.283.755-.283s.554.107.756.285l-.001-.001z"/></symbol><symbol id="twitter" viewBox="0 0 32 32"><path d="M23.273 11.49c-.5.224-1.08.39-1.688.467l-.031.003a2.98 2.98 0 001.306-1.627l.006-.021a5.851 5.851 0 01-1.853.715l-.038.006a2.981 2.981 0 00-5.158 2.036v.003c0 .236.02.464.07.68a8.443 8.443 0 01-6.147-3.119 2.984 2.984 0 00.917 3.986 2.937 2.937 0 01-1.362-.375l.015.008v.033a2.995 2.995 0 002.37 2.927l.02.003a2.906 2.906 0 01-.756.098h-.028.001-.047c-.183 0-.362-.019-.534-.054l.017.003a3.012 3.012 0 002.786 2.078 5.948 5.948 0 01-3.69 1.271h-.047c-.238 0-.472-.015-.701-.044l.027.003a8.317 8.317 0 004.547 1.338h.029-.002c5.487 0 8.487-4.545 8.487-8.486 0-.131-.004-.259-.011-.385a5.978 5.978 0 001.481-1.526l.014-.021z"/></symbol></defs></svg>